<?xml version="1.0" standalone="no"?>
<!DOCTYPE svg PUBLIC "-//W3C//DTD SVG 20010904//EN"
 "http://www.w3.org/TR/2001/REC-SVG-20010904/DTD/svg10.dtd">
<svg version="1.0" xmlns="http://www.w3.org/2000/svg"
 width="308.000000pt" height="308.000000pt" viewBox="0 0 308.000000 308.000000"
 preserveAspectRatio="xMidYMid meet">
<metadata>
Created by potrace 1.14, written by Peter Selinger 2001-2017
</metadata>
<g transform="translate(0.000000,308.000000) scale(0.100000,-0.100000)"
fill="#000000" stroke="none">
<path d="M0 1540 l0 -1540 625 0 c344 0 625 2 625 4 0 2 -11 23 -24 47 -26 47
-87 214 -81 221 4 3 -24 22 -88 62 -15 9 -25 21 -22 25 7 12 -20 32 -36 29 -9
-2 -13 4 -11 15 2 10 -3 17 -12 17 -9 0 -21 9 -28 20 -7 11 -16 20 -19 20 -4
0 -27 20 -53 44 -48 47 -47 59 6 60 33 1 36 -9 7 -24 -20 -11 -20 -11 5 -31
13 -10 30 -19 38 -19 24 0 58 -30 58 -52 0 -11 8 -22 20 -25 11 -3 20 -10 20
-17 0 -6 7 -3 15 8 13 18 41 14 30 -5 -3 -5 0 -6 8 -3 14 5 39 -17 36 -32 -4
-22 2 -34 17 -34 8 0 13 4 10 9 -3 4 6 6 21 3 15 -3 24 -1 20 5 -3 5 0 10 8
10 8 0 15 -5 15 -10 0 -5 7 -7 15 -3 10 4 15 -1 15 -15 0 -16 5 -20 20 -16 10
3 24 -1 31 -9 8 -10 16 -11 32 -3 18 10 19 9 14 -11 -5 -18 -2 -21 15 -17 19
5 19 4 3 -13 -12 -13 -13 -19 -4 -22 7 -2 9 -10 5 -17 -6 -9 -11 -9 -21 -1 -8
7 -27 9 -44 5 -24 -5 -29 -3 -27 12 1 15 -6 18 -36 17 -31 -1 -38 2 -38 17 0
22 -15 25 -23 5 -5 -13 21 -46 37 -46 4 0 16 -8 27 -19 24 -22 176 -70 261
-82 35 -4 90 -13 123 -19 33 -6 75 -14 93 -17 28 -4 31 -7 20 -21 -7 -8 -31
-28 -52 -44 l-39 -28 721 0 722 0 0 1540 0 1540 -868 0 c-865 0 -892 -1 -892
-31 0 -4 9 -11 20 -14 16 -5 18 -10 10 -26 -12 -21 -1 -26 18 -7 9 9 12 8 12
-4 0 -8 7 -21 15 -28 8 -7 15 -24 15 -39 0 -18 -3 -22 -9 -13 -7 11 -9 11 -14
-2 -10 -26 3 -49 19 -35 11 9 14 7 14 -8 0 -21 36 -56 50 -48 16 10 32 -33 20
-55 -9 -16 -8 -20 5 -20 8 0 16 -6 16 -12 6 -55 4 -68 -11 -68 -13 0 -13 -1 0
-10 11 -7 19 -5 29 10 7 11 18 20 23 20 16 0 35 -24 30 -39 -3 -8 0 -11 7 -7
13 9 41 -17 41 -37 0 -9 6 -17 13 -20 9 -3 9 -9 -2 -29 -7 -15 -10 -31 -7 -37
4 -6 2 -11 -4 -11 -12 0 -11 -5 6 -67 5 -19 2 -23 -15 -23 -18 0 -20 -4 -15
-32 3 -18 8 -40 12 -48 3 -8 7 -50 8 -92 2 -57 -1 -80 -12 -89 -8 -6 -14 -17
-14 -23 0 -6 -7 -23 -15 -39 -8 -15 -12 -43 -10 -62 5 -37 1 -40 -64 -47 -13
-2 -29 -11 -35 -22 -21 -35 -61 -72 -115 -106 -48 -30 -63 -34 -140 -38 -47
-2 -91 -8 -97 -14 -8 -5 -26 -3 -50 6 -66 24 -92 27 -162 15 -44 -8 -71 -18
-80 -30 -7 -11 -18 -19 -24 -19 -7 0 -3 7 8 15 10 8 14 15 8 15 -18 0 -65 -41
-59 -51 4 -5 1 -9 -5 -9 -6 0 -8 -4 -5 -10 10 -16 29 -11 58 16 15 14 40 30
56 35 25 9 33 7 50 -10 24 -24 26 -33 9 -30 -28 3 -36 -2 -31 -21 9 -35 50
-53 105 -46 l49 7 -22 -31 c-28 -37 -16 -56 25 -40 37 14 60 37 43 44 -9 3 -8
8 4 18 9 7 18 20 22 28 3 9 6 5 6 -11 1 -15 7 -32 15 -38 12 -10 17 -8 25 8
16 28 14 62 -2 55 -10 -3 -14 5 -15 31 l-1 35 58 0 c56 0 59 -2 74 -31 14 -29
13 -37 -5 -98 -12 -40 -23 -114 -28 -186 -4 -66 -12 -131 -17 -145 -6 -14 -8
-31 -5 -39 3 -8 0 -11 -6 -7 -7 4 -3 -12 7 -36 15 -35 23 -43 44 -43 14 0 29
-4 33 -8 11 -10 12 -87 2 -87 -5 0 -8 5 -8 12 0 6 -3 8 -6 5 -9 -8 16 -38 26
-32 4 3 8 -5 7 -18 0 -12 2 -28 4 -36 3 -10 -9 -17 -36 -23 -43 -9 -55 -21
-55 -55 0 -19 6 -23 29 -23 49 0 61 -9 61 -46 0 -27 4 -34 19 -34 11 0 26 -6
33 -13 7 -8 19 -12 26 -9 6 2 12 -3 12 -12 0 -9 5 -16 12 -16 6 0 24 -14 39
-31 15 -17 32 -28 38 -25 5 4 12 2 16 -4 8 -14 -4 -50 -17 -50 -5 0 -17 -9
-26 -20 -19 -23 -68 -32 -64 -13 1 7 -4 13 -12 13 -8 0 -17 12 -21 28 -7 26
-7 26 -16 5 -10 -27 -3 -71 18 -102 8 -13 11 -21 5 -18 -13 9 -2 -46 12 -55 7
-5 5 -18 -7 -40 -17 -32 -17 -32 -14 -5 5 31 -12 37 -20 7 -4 -16 -8 -18 -19
-9 -8 6 -14 18 -14 25 0 8 -6 11 -14 8 -9 -3 -12 -13 -9 -22 9 -25 -3 -11 -21
23 -13 25 -16 26 -17 10 -1 -17 -2 -16 -9 5 -8 24 -8 23 -9 -7 -1 -18 -5 -33
-11 -33 -5 0 -10 -8 -10 -17 0 -16 -2 -16 -11 -3 -8 12 -9 11 -5 -6 4 -11 -1
-29 -9 -40 -14 -18 -14 -18 -15 9 0 29 -9 34 -29 15 -11 -11 -14 -10 -18 0 -3
6 -9 10 -14 6 -5 -3 -12 2 -15 10 -4 11 -11 13 -31 5 -32 -12 -30 -12 -36 13
-4 12 -9 20 -12 17 -3 -4 -21 9 -41 28 -20 18 -40 31 -44 28 -5 -3 -17 6 -26
20 -13 20 -19 23 -26 13 -6 -8 -7 -1 -3 22 16 80 15 98 -6 93 -10 -3 -16 -10
-13 -15 4 -6 0 -15 -7 -20 -10 -7 -7 -7 8 -3 14 4 23 2 23 -4 0 -6 -9 -12 -20
-12 -33 -2 -38 -4 -47 -12 -4 -5 0 -13 10 -18 9 -6 15 -14 12 -20 -4 -5 -1 -9
5 -9 6 0 8 -4 5 -10 -9 -14 -25 -12 -25 3 0 8 -7 14 -15 14 -8 0 -12 -4 -9 -9
9 -14 -10 -8 -34 12 -12 10 -22 22 -21 27 2 10 -26 75 -38 86 -4 5 -8 12 -8
15 -2 19 -17 52 -25 52 -4 0 -11 16 -14 35 -4 19 -10 35 -15 35 -4 0 -13 25
-20 55 -7 30 -19 61 -27 69 -10 11 -11 15 -1 19 9 3 9 7 -2 20 -7 9 -11 23 -8
32 4 8 3 17 -2 19 -7 5 -9 20 -13 86 0 8 -5 21 -11 28 -10 13 -11 397 -1 414
4 6 10 5 15 -3 5 -9 9 12 9 54 0 40 -4 66 -9 62 -6 -3 -8 5 -5 19 2 13 -2 29
-11 36 -10 8 -15 9 -15 2 0 -6 -7 -9 -15 -6 -8 4 -15 18 -15 33 0 15 3 21 8
14 5 -8 14 -6 32 7 14 11 19 20 13 20 -9 0 -13 18 -14 53 0 28 -4 76 -8 104
-7 52 11 271 24 293 4 6 8 21 10 33 1 12 13 56 25 97 12 41 22 81 23 88 0 6 3
12 6 12 4 0 13 21 20 48 24 85 87 176 206 299 63 66 134 130 157 143 24 13 59
34 78 47 l35 23 -573 0 -572 0 0 -1540z m1726 335 c17 -13 14 -14 -38 -15 -32
0 -58 4 -58 9 0 8 12 12 66 20 5 0 19 -6 30 -14z m237 -7 c10 -5 16 -12 14
-15 -3 -2 -14 0 -25 6 -12 6 -32 11 -46 11 -14 0 -26 4 -26 10 0 11 54 3 83
-12z m-363 -58 c-24 -15 -37 -11 -16 5 11 8 22 12 25 9 3 -3 -1 -9 -9 -14z
m56 -17 c0 -10 5 -17 12 -15 6 1 12 -2 12 -8 0 -5 -9 -10 -19 -10 -25 0 -20
-34 8 -64 l20 -21 -30 1 c-34 1 -38 4 -45 35 -16 67 -16 74 8 85 33 16 36 16
34 -3z m-536 -18 c0 -8 -4 -15 -10 -15 -5 0 -7 7 -4 15 4 8 8 15 10 15 2 0 4
-7 4 -15z m500 -115 c0 -5 -6 -10 -14 -10 -8 0 -18 5 -21 10 -3 6 3 10 14 10
12 0 21 -4 21 -10z m330 -110 c0 -5 -5 -10 -11 -10 -5 0 -7 5 -4 10 3 6 8 10
11 10 2 0 4 -4 4 -10z m-202 -143 c2 -11 -5 -25 -17 -33 -12 -9 -21 -24 -21
-35 0 -10 -7 -19 -15 -19 -8 0 -15 -5 -15 -11 0 -6 8 -8 19 -4 39 12 36 -24
-3 -38 -5 -2 -6 -9 -2 -16 7 -10 10 -11 16 -1 9 14 40 7 40 -9 0 -5 -9 -11
-20 -14 -11 -3 -20 -10 -20 -16 0 -6 9 -11 20 -11 12 0 20 -7 20 -16 0 -13 -7
-15 -34 -10 -18 4 -44 2 -57 -2 -31 -12 -66 4 -73 33 -3 13 4 43 19 73 14 29
25 61 25 72 0 23 12 25 42 9 19 -10 20 -9 15 17 -3 15 -3 34 0 41 8 21 57 12
61 -10z m-8 -57 c0 -5 -4 -10 -10 -10 -5 0 -10 5 -10 10 0 6 5 10 10 10 6 0
10 -4 10 -10z m0 -30 c0 -5 -4 -10 -10 -10 -5 0 -10 5 -10 10 0 6 5 10 10 10
6 0 10 -4 10 -10z m38 -190 c7 -11 8 -20 4 -20 -5 0 -17 9 -27 20 -14 15 -15
20 -4 20 8 0 20 -9 27 -20z m-371 -132 c-3 -8 -6 -5 -6 6 -1 11 2 17 5 13 3
-3 4 -12 1 -19z m293 -148 c0 -5 -7 -10 -15 -10 -8 0 -15 5 -15 10 0 6 7 10
15 10 8 0 15 -4 15 -10z m-283 -292 c-3 -8 -6 -5 -6 6 -1 11 2 17 5 13 3 -3 4
-12 1 -19z m-148 -101 c-7 -15 -16 -24 -20 -21 -5 3 -9 0 -9 -5 0 -6 -4 -11
-9 -11 -5 0 -7 9 -4 21 3 11 11 18 19 15 7 -3 16 4 19 15 4 11 9 18 11 16 3
-2 -1 -16 -7 -30z m94 -7 c-3 -12 -8 -19 -11 -16 -5 6 5 36 12 36 2 0 2 -9 -1
-20z"/>
<path d="M877 1934 c4 -12 1 -15 -14 -12 -40 6 -23 -17 18 -25 52 -11 109 -1
109 18 0 14 -27 20 -77 18 -7 -1 -13 3 -13 8 0 5 -7 9 -15 9 -9 0 -12 -6 -8
-16z"/>
<path d="M590 1770 c0 -5 4 -10 9 -10 6 0 13 5 16 10 3 6 -1 10 -9 10 -9 0
-16 -4 -16 -10z"/>
<path d="M1110 1280 c0 -15 7 -20 25 -20 29 0 30 3 9 24 -21 22 -34 20 -34 -4z"/>
<path d="M1198 1153 c-30 -35 -31 -61 -3 -87 30 -28 47 -26 63 10 9 19 8 31
-5 59 -19 39 -33 43 -55 18z"/>
<path d="M1075 963 c-19 -15 -18 -15 14 -9 18 3 45 6 59 6 33 0 26 6 -18 13
-24 4 -41 1 -55 -10z"/>
<path d="M973 947 c-10 -5 -19 -11 -21 -12 -1 -1 0 -10 4 -19 5 -14 9 -14 22
-4 8 7 27 18 41 24 l26 11 -27 5 c-14 3 -34 0 -45 -5z"/>
<path d="M1246 805 c-3 -8 -1 -15 4 -15 6 0 10 7 10 15 0 8 -2 15 -4 15 -2 0
-6 -7 -10 -15z"/>
<path d="M1320 786 c0 -16 -7 -37 -16 -47 -14 -16 -14 -19 2 -37 22 -27 42
-18 37 16 -3 23 -2 24 6 7 8 -17 10 -15 10 15 0 19 -4 42 -9 50 -5 8 -10 11
-10 5 0 -5 -5 -3 -10 5 -7 12 -10 8 -10 -14z m27 -28 c-3 -8 -6 -5 -6 6 -1 11
2 17 5 13 3 -3 4 -12 1 -19z"/>
<path d="M910 633 c0 -15 19 -37 26 -31 3 4 -1 14 -10 23 -9 9 -16 13 -16 8z"/>
<path d="M960 440 c0 -5 5 -10 11 -10 5 0 7 5 4 10 -3 6 -8 10 -11 10 -2 0 -4
-4 -4 -10z"/>
<path d="M1306 253 c-6 -14 -5 -15 5 -6 7 7 10 15 7 18 -3 3 -9 -2 -12 -12z"/>
</g>
</svg>
